<?xml version="1.0" standalone="no"?>
<svg viewBox="0 0 200 200" xmlns="http://www.w3.org/2000/svg" width="100%" preserveAspectRatio="none">
  <path fill="#C28C17" d="M32,-49.3C46.3,-47.2,66.1,-48.4,65.1,-40.7C64.2,-33,42.6,-16.5,37.3,-3C32.1,10.5,43.3,21,44.3,28.8C45.4,36.7,36.3,41.9,27.2,50.3C18.1,58.7,9.1,70.4,-0.6,71.5C-10.4,72.6,-20.7,63.2,-23.4,51.1C-26.2,39,-21.3,24.3,-17.1,15.3C-13,6.3,-9.5,3.2,-19.9,-6.1C-30.4,-15.3,-54.9,-30.6,-54.9,-32.2C-54.9,-33.9,-30.3,-22,-17.1,-24.7C-3.9,-27.5,-1.9,-45,3.5,-51C8.8,-56.9,17.7,-51.5,32,-49.3Z" transform="translate(100 100)" />
</svg>
