<?xml version="1.0" standalone="no"?>
<svg viewBox="0 0 200 200" xmlns="http://www.w3.org/2000/svg" width="100%" preserveAspectRatio="none">
  <path fill="#C28C17" d="M24.3,-40.9C32.8,-37.2,41.8,-33.3,52.5,-26.4C63.2,-19.5,75.6,-9.8,70.3,-3C65.1,3.7,42.1,7.4,33.5,17.8C24.8,28.2,30.5,45.4,27.3,52.9C24.1,60.4,12,58.2,0.2,57.8C-11.6,57.4,-23.2,58.9,-29.5,53.2C-35.8,47.5,-36.8,34.7,-32.2,24.6C-27.6,14.6,-17.4,7.3,-17,0.3C-16.5,-6.8,-25.8,-13.5,-26.7,-17.1C-27.5,-20.6,-19.9,-21,-14.1,-26.1C-8.2,-31.3,-4.1,-41.2,1.9,-44.6C7.9,-47.9,15.8,-44.5,24.3,-40.9Z" transform="translate(100 100)" />
</svg>
