<?xml version="1.0" standalone="no"?><svg xmlns="http://www.w3.org/2000/svg" viewBox="0 0 1440 320" width="100%" preserveAspectRatio="none"><path fill="#c28c17" fill-opacity="1" d="M0,320L9.2,298.7C18.5,277,37,235,55,213.3C73.8,192,92,192,111,160C129.2,128,148,64,166,42.7C184.6,21,203,43,222,48C240,53,258,43,277,37.3C295.4,32,314,32,332,53.3C350.8,75,369,117,388,133.3C406.2,149,425,139,443,160C461.5,181,480,235,498,229.3C516.9,224,535,160,554,149.3C572.3,139,591,181,609,176C627.7,171,646,117,665,106.7C683.1,96,702,128,720,170.7C738.5,213,757,267,775,272C793.8,277,812,235,831,224C849.2,213,868,235,886,234.7C904.6,235,923,213,942,202.7C960,192,978,192,997,176C1015.4,160,1034,128,1052,112C1070.8,96,1089,96,1108,101.3C1126.2,107,1145,117,1163,106.7C1181.5,96,1200,64,1218,80C1236.9,96,1255,160,1274,170.7C1292.3,181,1311,139,1329,106.7C1347.7,75,1366,53,1385,58.7C1403.1,64,1422,96,1431,112L1440,128L1440,0L1430.8,0C1421.5,0,1403,0,1385,0C1366.2,0,1348,0,1329,0C1310.8,0,1292,0,1274,0C1255.4,0,1237,0,1218,0C1200,0,1182,0,1163,0C1144.6,0,1126,0,1108,0C1089.2,0,1071,0,1052,0C1033.8,0,1015,0,997,0C978.5,0,960,0,942,0C923.1,0,905,0,886,0C867.7,0,849,0,831,0C812.3,0,794,0,775,0C756.9,0,738,0,720,0C701.5,0,683,0,665,0C646.2,0,628,0,609,0C590.8,0,572,0,554,0C535.4,0,517,0,498,0C480,0,462,0,443,0C424.6,0,406,0,388,0C369.2,0,351,0,332,0C313.8,0,295,0,277,0C258.5,0,240,0,222,0C203.1,0,185,0,166,0C147.7,0,129,0,111,0C92.3,0,74,0,55,0C36.9,0,18,0,9,0L0,0Z"></path></svg>